# xmcd CD database file
#
# Track frame offsets:
#	150
#	25351
#	49740
#	74222
#	96223
#	122663
#	142239
#	164144
#
# Disc length: 2463 seconds
#
# Revision: 0
# Processed by: cddbd v1.5PL3 Copyright (c) Steve Scherf et al.
# Submitted via: CDex 1.51
#
DISCID=80099d08
DTITLE=Grupo Niche - Cielo De Tambores
DYEAR=1900
DGENRE=Salsa
TTITLE0=Cielo de Tambores
TTITLE1=Una Aventura
TTITLE2=Se Pareció Tanto a Ti
TTITLE3=Doña Pastora
TTITLE4=Busca por Dentro
TTITLE5=Debería Olvidarla
TTITLE6=Sin Sentimientos
TTITLE7=Cali Aji
EXTD=
EXTT0=
EXTT1=
EXTT2=
EXTT3=
EXTT4=
EXTT5=
EXTT6=
EXTT7=
PLAYORDER=
